<?xml version="1.0" encoding="utf-8"?>
<!-- Generator: Adobe Illustrator 25.2.1, SVG Export Plug-In . SVG Version: 6.00 Build 0)  -->
<svg version="1.1" id="Layer_1" xmlns="http://www.w3.org/2000/svg" xmlns:xlink="http://www.w3.org/1999/xlink" x="0px" y="0px"
	 viewBox="0 0 113.39 62.36" style="enable-background:new 0 0 113.39 62.36;" xml:space="preserve">
<style type="text/css">
	.st0{fill:#965FDD;}
</style>
<g>
	<g>
		<path class="st0" d="M47.92,3.25c7.41,0,13.42,5.36,13.42,11.98c0,6.62-6.01,11.98-13.42,11.98L47.92,3.25z M43.62,27.21h2.55
			c0.49,0,0.9-0.4,0.9-0.9l0-22.17c0-0.49-0.4-0.9-0.9-0.9h-2.55c-0.49,0-0.9,0.4-0.9,0.9l0,22.17
			C42.72,26.8,43.13,27.21,43.62,27.21z"/>
		<path class="st0" d="M16.27,27.21c-7.41,0-13.42-5.36-13.42-11.98c0-6.62,6.01-11.98,13.42-11.98L16.27,27.21z"/>
		<path class="st0" d="M20.56,27.21h-2.55c-0.49,0-0.9-0.4-0.9-0.9l0-22.17c0-0.49,0.4-0.9,0.9-0.9h2.55c0.49,0,0.9,0.4,0.9,0.9
			l0,22.17C21.46,26.8,21.06,27.21,20.56,27.21z"/>
		<path class="st0" d="M54.36,23.23h-3.73c0,0,0,0,0,0h0.05c0.89,2.61,1.38,5.45,1.38,8.41c0,12.89-9.25,23.34-20.66,23.34
			S10.75,44.53,10.75,31.64c0-2.97,0.49-5.8,1.38-8.41H8.46c-1.06,2.95-1.65,6.16-1.65,9.51c0,14.57,11.01,26.38,24.6,26.38
			s24.6-11.81,24.6-26.38C56.01,29.38,55.43,26.18,54.36,23.23z"/>
	</g>
	<g>
		<ellipse transform="matrix(0.866 -0.5 0.5 0.866 -16.9306 39.1725)" class="st0" cx="64.63" cy="51.18" rx="9.11" ry="7.5"/>
		<rect x="67.35" y="10.57" class="st0" width="5.97" height="40.61"/>
		
			<rect x="85.63" y="-11.78" transform="matrix(0.1736 0.9848 -0.9848 0.1736 83.0334 -79.0345)" class="st0" width="5.97" height="43.47"/>
		<g>
			<ellipse transform="matrix(0.866 -0.5 0.5 0.866 -10.6114 57.2608)" class="st0" cx="101.54" cy="48.43" rx="9.11" ry="7.5"/>
			<rect x="104.26" y="7.82" class="st0" width="5.97" height="40.61"/>
		</g>
		
			<rect x="87.95" y="-2.27" transform="matrix(0.1736 0.9848 -0.9848 0.1736 90.8874 -74.5)" class="st0" width="3.77" height="38.35"/>
	</g>
</g>
</svg>
